# xmcd CD database file
#
# Track frame offsets:
#	150
#	21910
#	40990
#	62456
#	90428
#	114627
#	140092
#	168627
#	193778
#	225286
#
# Disc length: 3218 seconds
#
# Revision: 0
# Processed by: cddbd v1.5.1PL0 Copyright (c) Steve Scherf et al.
# Submitted via: CDex 1.51
#
DISCID=810c900a
DTITLE=Dag Arnesen - Time Enough
DYEAR=2004
DGENRE=Jazz
TTITLE0=Would I?
TTITLE1=Trio II
TTITLE2=Madam Felle
TTITLE3=Stripen
TTITLE4=The Aunts
TTITLE5=View From A Mountain
TTITLE6=Three Each
TTITLE7=Time Enough
TTITLE8=Line Down
TTITLE9=Til Jens
EXTD=YEAR: 2004
EXTT0=
EXTT1=
EXTT2=
EXTT3=
EXTT4=
EXTT5=
EXTT6=
EXTT7=
EXTT8=
EXTT9=
PLAYORDER=
